<?xml version="1.0" standalone="no"?>
<!DOCTYPE svg PUBLIC "-//W3C//DTD SVG 20010904//EN"
 "http://www.w3.org/TR/2001/REC-SVG-20010904/DTD/svg10.dtd">
<svg version="1.0" xmlns="http://www.w3.org/2000/svg"
 width="239.000000pt" height="239.000000pt" viewBox="0 0 239.000000 239.000000"
 preserveAspectRatio="xMidYMid meet">
<metadata>
Created by potrace 1.14, written by Peter Selinger 2001-2017
</metadata>
<g transform="translate(0.000000,239.000000) scale(0.100000,-0.100000)"
fill="#000000" stroke="none">
<path d="M799 2375 c-6 0 -2 -255 4 -255 5 0 5 -5 1 -12 -11 -17 -11 -78 -1
-78 4 0 5 -6 1 -12 -12 -19 -12 -48 -1 -48 5 0 4 -6 -2 -14 -8 -9 -8 -16 -2
-20 6 -4 7 -15 1 -30 -4 -12 -4 -29 0 -36 5 -8 5 -19 0 -25 -5 -6 -5 -16 -1
-23 5 -8 16 3 34 35 15 27 41 71 57 98 17 28 35 62 41 78 6 15 15 27 20 27 5
0 9 6 9 14 0 7 7 19 15 26 9 7 13 15 10 18 -3 3 1 12 7 20 7 8 17 22 23 33 5
10 33 57 60 105 28 48 49 90 48 93 -2 4 -291 9 -324 6z"/>
<path d="M1311 2364 c6 -8 8 -14 3 -14 -5 0 -4 -4 2 -8 6 -4 34 -50 64 -102
29 -52 61 -107 71 -121 10 -14 16 -29 12 -33 -3 -3 -2 -6 3 -6 5 0 23 -26 39
-58 17 -31 32 -59 35 -62 6 -6 29 -46 48 -83 10 -20 17 -26 25 -18 11 11 14
92 3 109 -3 6 -1 12 5 14 7 2 7 12 1 29 -6 15 -7 32 -2 39 5 9 4 20 -2 27 -6
8 -7 13 -1 13 7 0 8 15 3 40 -4 22 -3 40 2 40 5 0 4 9 -2 19 -7 14 -7 22 0 26
6 4 7 11 4 17 -8 13 -9 107 -1 115 4 3 0 12 -8 19 -20 20 -321 18 -304 -2z"/>
<path d="M1197 2213 c-6 -16 -14 -30 -18 -33 -3 -3 -14 -21 -24 -40 -10 -19
-21 -37 -24 -40 -4 -3 -12 -16 -18 -30 -7 -14 -28 -52 -48 -85 -20 -33 -38
-68 -42 -77 -3 -10 -9 -18 -14 -18 -5 0 -9 -4 -9 -10 0 -5 -19 -42 -43 -82
-24 -40 -46 -80 -50 -88 -7 -16 -20 -37 -50 -82 -10 -16 -15 -28 -10 -28 4 0
3 -4 -3 -8 -6 -4 -19 -23 -29 -42 -9 -19 -24 -43 -33 -52 -8 -10 -11 -18 -6
-18 5 0 4 -4 -1 -8 -12 -8 -85 -130 -85 -141 0 -4 -7 -16 -15 -26 -13 -17 -92
-152 -247 -425 -11 -19 -24 -39 -28 -45 -4 -5 -10 -19 -14 -31 -6 -20 -4 -21
191 -20 109 1 205 0 214 -2 14 -3 16 -24 17 -150 0 -81 0 -157 1 -169 l1 -23
411 0 410 0 -1 122 c-1 68 -1 146 -1 173 l1 50 211 -1 210 -1 -6 26 c-4 14
-10 28 -14 31 -4 3 -11 12 -15 20 -4 8 -12 24 -19 35 -28 46 -51 90 -49 98 1
4 -1 7 -6 7 -4 0 -19 21 -32 48 -14 26 -27 49 -30 52 -6 6 -27 43 -54 95 -12
22 -24 42 -27 45 -3 3 -19 30 -35 60 -16 30 -33 58 -39 62 -7 5 -7 8 0 8 6 0
6 3 0 8 -14 9 -95 148 -95 161 0 6 -4 11 -10 11 -5 0 -10 6 -10 14 0 7 -7 19
-15 26 -9 7 -13 15 -11 18 3 3 -3 17 -13 31 -11 15 -34 54 -52 86 -18 33 -35
62 -38 65 -3 3 -14 21 -23 40 -23 46 -69 124 -77 130 -3 3 -7 10 -8 15 -2 10
-94 170 -110 190 -4 6 -9 17 -11 25 -2 8 -8 17 -13 18 -5 2 -9 10 -9 18 0 24
-20 16 -33 -13z"/>
<path d="M635 2000 c-3 -5 -1 -10 4 -10 6 0 11 5 11 10 0 6 -2 10 -4 10 -3 0
-8 -4 -11 -10z"/>
<path d="M150 1634 c0 -6 -28 -10 -72 -10 l-73 1 0 -420 0 -420 100 -1 c88 0
102 2 120 20 11 11 18 21 17 21 -8 0 22 55 30 55 4 0 8 9 8 20 0 11 4 20 8 20
8 0 36 51 32 59 -1 2 3 7 8 10 5 3 24 33 42 66 18 33 42 72 52 88 11 15 16 27
12 27 -4 0 0 8 8 18 22 25 248 420 248 433 0 6 -6 9 -13 6 -8 -3 -20 -1 -27 3
-8 5 -19 6 -25 2 -17 -11 -145 -8 -145 3 0 6 -3 6 -8 -1 -9 -13 -145 -12 -154
1 -5 7 -8 6 -8 -1 0 -13 -142 -13 -152 1 -5 7 -8 6 -8 -1z"/>
<path d="M1830 1631 c0 -5 -20 -8 -45 -5 -25 2 -45 1 -45 -3 0 -7 16 -36 109
-193 31 -52 56 -98 56 -102 0 -4 6 -13 13 -19 6 -7 12 -19 12 -26 0 -7 4 -13
8 -13 4 0 13 -12 19 -27 12 -29 54 -104 63 -113 3 -3 11 -16 18 -29 8 -13 23
-40 35 -60 11 -20 27 -48 34 -63 8 -15 19 -30 24 -33 5 -4 7 -11 4 -16 -4 -5
-2 -9 3 -9 5 0 12 -8 16 -17 6 -21 34 -68 56 -98 13 -17 27 -21 88 -21 65 0
73 2 77 20 2 12 3 201 2 421 l-2 400 -65 0 c-36 0 -68 5 -72 10 -5 7 -8 6 -8
-1 0 -13 -142 -13 -152 1 -5 7 -8 7 -8 0 0 -12 -205 -14 -216 -2 -10 10 -24 9
-24 -2z"/>
<path d="M815 300 c-5 -9 -7 -62 -6 -172 l1 -108 410 0 c383 0 410 1 411 18 4
65 0 254 -5 259 -7 7 -807 10 -811 3z"/>
</g>
</svg>
